<mxfile host="app.diagrams.net" modified="2021-08-26T04:26:56.398Z" agent="5.0 (Windows)" etag="xFYr9LUrJ5tbSJkxXzSI" version="14.2.9" type="github">
  <diagram id="oKRZNPYwno9ciUISoXF5" name="Page-1">
    <mxGraphModel dx="1038" dy="564" grid="1" gridSize="10" guides="1" tooltips="1" connect="1" arrows="1" fold="1" page="1" pageScale="1" pageWidth="850" pageHeight="1100" math="0" shadow="0">
      <root>
        <mxCell id="0" />
        <mxCell id="1" parent="0" />
        <mxCell id="omvnYwaKnkiWsVWoxEQf-14" style="edgeStyle=orthogonalEdgeStyle;rounded=0;orthogonalLoop=1;jettySize=auto;html=1;entryX=0.5;entryY=0;entryDx=0;entryDy=0;" edge="1" parent="1" source="omvnYwaKnkiWsVWoxEQf-1" target="omvnYwaKnkiWsVWoxEQf-2">
          <mxGeometry relative="1" as="geometry" />
        </mxCell>
        <mxCell id="omvnYwaKnkiWsVWoxEQf-1" value="Start" style="ellipse;whiteSpace=wrap;html=1;" vertex="1" parent="1">
          <mxGeometry x="350" y="30" width="120" height="80" as="geometry" />
        </mxCell>
        <mxCell id="omvnYwaKnkiWsVWoxEQf-15" style="edgeStyle=orthogonalEdgeStyle;rounded=0;orthogonalLoop=1;jettySize=auto;html=1;entryX=0.5;entryY=0;entryDx=0;entryDy=0;" edge="1" parent="1" source="omvnYwaKnkiWsVWoxEQf-2" target="omvnYwaKnkiWsVWoxEQf-3">
          <mxGeometry relative="1" as="geometry" />
        </mxCell>
        <mxCell id="omvnYwaKnkiWsVWoxEQf-2" value="go to appointment" style="rounded=0;whiteSpace=wrap;html=1;" vertex="1" parent="1">
          <mxGeometry x="360" y="160" width="120" height="60" as="geometry" />
        </mxCell>
        <mxCell id="omvnYwaKnkiWsVWoxEQf-16" style="edgeStyle=orthogonalEdgeStyle;rounded=0;orthogonalLoop=1;jettySize=auto;html=1;exitX=0;exitY=0.5;exitDx=0;exitDy=0;entryX=0.45;entryY=0;entryDx=0;entryDy=0;entryPerimeter=0;" edge="1" parent="1" source="omvnYwaKnkiWsVWoxEQf-3" target="omvnYwaKnkiWsVWoxEQf-4">
          <mxGeometry relative="1" as="geometry" />
        </mxCell>
        <mxCell id="omvnYwaKnkiWsVWoxEQf-17" style="edgeStyle=orthogonalEdgeStyle;rounded=0;orthogonalLoop=1;jettySize=auto;html=1;exitX=1;exitY=0.5;exitDx=0;exitDy=0;entryX=0.5;entryY=0;entryDx=0;entryDy=0;" edge="1" parent="1" source="omvnYwaKnkiWsVWoxEQf-3" target="omvnYwaKnkiWsVWoxEQf-5">
          <mxGeometry relative="1" as="geometry" />
        </mxCell>
        <mxCell id="omvnYwaKnkiWsVWoxEQf-3" value="fill in the detail" style="shape=parallelogram;perimeter=parallelogramPerimeter;whiteSpace=wrap;html=1;fixedSize=1;" vertex="1" parent="1">
          <mxGeometry x="360" y="280" width="120" height="60" as="geometry" />
        </mxCell>
        <mxCell id="omvnYwaKnkiWsVWoxEQf-18" style="edgeStyle=orthogonalEdgeStyle;rounded=0;orthogonalLoop=1;jettySize=auto;html=1;" edge="1" parent="1" source="omvnYwaKnkiWsVWoxEQf-4" target="omvnYwaKnkiWsVWoxEQf-6">
          <mxGeometry relative="1" as="geometry" />
        </mxCell>
        <mxCell id="omvnYwaKnkiWsVWoxEQf-4" value="sign in " style="rounded=0;whiteSpace=wrap;html=1;" vertex="1" parent="1">
          <mxGeometry x="140" y="400" width="120" height="60" as="geometry" />
        </mxCell>
        <mxCell id="omvnYwaKnkiWsVWoxEQf-20" style="edgeStyle=orthogonalEdgeStyle;rounded=0;orthogonalLoop=1;jettySize=auto;html=1;entryX=0.5;entryY=0;entryDx=0;entryDy=0;" edge="1" parent="1" source="omvnYwaKnkiWsVWoxEQf-5" target="omvnYwaKnkiWsVWoxEQf-7">
          <mxGeometry relative="1" as="geometry" />
        </mxCell>
        <mxCell id="omvnYwaKnkiWsVWoxEQf-5" value="login " style="rounded=0;whiteSpace=wrap;html=1;" vertex="1" parent="1">
          <mxGeometry x="580" y="390" width="120" height="60" as="geometry" />
        </mxCell>
        <mxCell id="omvnYwaKnkiWsVWoxEQf-19" style="edgeStyle=orthogonalEdgeStyle;rounded=0;orthogonalLoop=1;jettySize=auto;html=1;exitX=0;exitY=0.5;exitDx=0;exitDy=0;entryX=0;entryY=0.5;entryDx=0;entryDy=0;" edge="1" parent="1" source="omvnYwaKnkiWsVWoxEQf-6" target="omvnYwaKnkiWsVWoxEQf-4">
          <mxGeometry relative="1" as="geometry" />
        </mxCell>
        <mxCell id="omvnYwaKnkiWsVWoxEQf-22" style="edgeStyle=orthogonalEdgeStyle;rounded=0;orthogonalLoop=1;jettySize=auto;html=1;exitX=0.5;exitY=1;exitDx=0;exitDy=0;entryX=0.5;entryY=0;entryDx=0;entryDy=0;" edge="1" parent="1" source="omvnYwaKnkiWsVWoxEQf-6" target="omvnYwaKnkiWsVWoxEQf-8">
          <mxGeometry relative="1" as="geometry" />
        </mxCell>
        <mxCell id="omvnYwaKnkiWsVWoxEQf-6" value="confirm" style="rhombus;whiteSpace=wrap;html=1;" vertex="1" parent="1">
          <mxGeometry x="170" y="500" width="80" height="80" as="geometry" />
        </mxCell>
        <mxCell id="omvnYwaKnkiWsVWoxEQf-21" style="edgeStyle=orthogonalEdgeStyle;rounded=0;orthogonalLoop=1;jettySize=auto;html=1;exitX=1;exitY=0.5;exitDx=0;exitDy=0;entryX=1;entryY=0.5;entryDx=0;entryDy=0;" edge="1" parent="1" source="omvnYwaKnkiWsVWoxEQf-7" target="omvnYwaKnkiWsVWoxEQf-5">
          <mxGeometry relative="1" as="geometry">
            <mxPoint x="710" y="410" as="targetPoint" />
          </mxGeometry>
        </mxCell>
        <mxCell id="omvnYwaKnkiWsVWoxEQf-23" style="edgeStyle=orthogonalEdgeStyle;rounded=0;orthogonalLoop=1;jettySize=auto;html=1;exitX=0.5;exitY=1;exitDx=0;exitDy=0;" edge="1" parent="1" source="omvnYwaKnkiWsVWoxEQf-7">
          <mxGeometry relative="1" as="geometry">
            <mxPoint x="410" y="600" as="targetPoint" />
          </mxGeometry>
        </mxCell>
        <mxCell id="omvnYwaKnkiWsVWoxEQf-7" value="valid " style="rhombus;whiteSpace=wrap;html=1;" vertex="1" parent="1">
          <mxGeometry x="610" y="500" width="80" height="80" as="geometry" />
        </mxCell>
        <mxCell id="omvnYwaKnkiWsVWoxEQf-24" style="edgeStyle=orthogonalEdgeStyle;rounded=0;orthogonalLoop=1;jettySize=auto;html=1;exitX=0.5;exitY=1;exitDx=0;exitDy=0;entryX=0.6;entryY=0.125;entryDx=0;entryDy=0;entryPerimeter=0;" edge="1" parent="1" source="omvnYwaKnkiWsVWoxEQf-8" target="omvnYwaKnkiWsVWoxEQf-10">
          <mxGeometry relative="1" as="geometry">
            <Array as="points">
              <mxPoint x="410" y="710" />
              <mxPoint x="425" y="710" />
              <mxPoint x="425" y="750" />
            </Array>
          </mxGeometry>
        </mxCell>
        <mxCell id="omvnYwaKnkiWsVWoxEQf-8" value="&lt;div&gt;add &lt;br&gt;&lt;/div&gt;&lt;div&gt;destination&lt;/div&gt;" style="rounded=0;whiteSpace=wrap;html=1;" vertex="1" parent="1">
          <mxGeometry x="350" y="620" width="120" height="60" as="geometry" />
        </mxCell>
        <mxCell id="omvnYwaKnkiWsVWoxEQf-25" style="edgeStyle=orthogonalEdgeStyle;rounded=0;orthogonalLoop=1;jettySize=auto;html=1;entryX=0;entryY=0.5;entryDx=0;entryDy=0;" edge="1" parent="1" source="omvnYwaKnkiWsVWoxEQf-10" target="omvnYwaKnkiWsVWoxEQf-8">
          <mxGeometry relative="1" as="geometry">
            <Array as="points">
              <mxPoint x="380" y="780" />
              <mxPoint x="380" y="710" />
              <mxPoint x="330" y="710" />
              <mxPoint x="330" y="650" />
            </Array>
          </mxGeometry>
        </mxCell>
        <mxCell id="omvnYwaKnkiWsVWoxEQf-26" style="edgeStyle=orthogonalEdgeStyle;rounded=0;orthogonalLoop=1;jettySize=auto;html=1;exitX=0.5;exitY=1;exitDx=0;exitDy=0;entryX=0.425;entryY=-0.067;entryDx=0;entryDy=0;entryPerimeter=0;" edge="1" parent="1" source="omvnYwaKnkiWsVWoxEQf-10" target="omvnYwaKnkiWsVWoxEQf-11">
          <mxGeometry relative="1" as="geometry" />
        </mxCell>
        <mxCell id="omvnYwaKnkiWsVWoxEQf-10" value="&lt;div&gt;destination&lt;/div&gt;&lt;div&gt;availabe&lt;br&gt;&lt;/div&gt;" style="rhombus;whiteSpace=wrap;html=1;" vertex="1" parent="1">
          <mxGeometry x="385" y="740" width="80" height="80" as="geometry" />
        </mxCell>
        <mxCell id="omvnYwaKnkiWsVWoxEQf-27" style="edgeStyle=orthogonalEdgeStyle;rounded=0;orthogonalLoop=1;jettySize=auto;html=1;exitX=0.5;exitY=1;exitDx=0;exitDy=0;entryX=0.5;entryY=0;entryDx=0;entryDy=0;" edge="1" parent="1" source="omvnYwaKnkiWsVWoxEQf-11" target="omvnYwaKnkiWsVWoxEQf-12">
          <mxGeometry relative="1" as="geometry" />
        </mxCell>
        <mxCell id="omvnYwaKnkiWsVWoxEQf-11" value="&lt;div&gt;payment&lt;/div&gt;&lt;div&gt;details &lt;br&gt;&lt;/div&gt;" style="rounded=0;whiteSpace=wrap;html=1;" vertex="1" parent="1">
          <mxGeometry x="365" y="860" width="120" height="60" as="geometry" />
        </mxCell>
        <mxCell id="omvnYwaKnkiWsVWoxEQf-28" style="edgeStyle=orthogonalEdgeStyle;rounded=0;orthogonalLoop=1;jettySize=auto;html=1;exitX=0.5;exitY=1;exitDx=0;exitDy=0;entryX=0.5;entryY=0;entryDx=0;entryDy=0;" edge="1" parent="1" source="omvnYwaKnkiWsVWoxEQf-12" target="omvnYwaKnkiWsVWoxEQf-13">
          <mxGeometry relative="1" as="geometry" />
        </mxCell>
        <mxCell id="omvnYwaKnkiWsVWoxEQf-29" style="edgeStyle=orthogonalEdgeStyle;rounded=0;orthogonalLoop=1;jettySize=auto;html=1;exitX=0;exitY=0.5;exitDx=0;exitDy=0;entryX=0;entryY=0.5;entryDx=0;entryDy=0;" edge="1" parent="1" source="omvnYwaKnkiWsVWoxEQf-12" target="omvnYwaKnkiWsVWoxEQf-11">
          <mxGeometry relative="1" as="geometry" />
        </mxCell>
        <mxCell id="omvnYwaKnkiWsVWoxEQf-12" value="&lt;div&gt;detail &lt;br&gt;&lt;/div&gt;&lt;div&gt;valid &lt;br&gt;&lt;/div&gt;" style="rhombus;whiteSpace=wrap;html=1;" vertex="1" parent="1">
          <mxGeometry x="385" y="930" width="80" height="80" as="geometry" />
        </mxCell>
        <mxCell id="omvnYwaKnkiWsVWoxEQf-13" value="stop " style="rounded=0;whiteSpace=wrap;html=1;" vertex="1" parent="1">
          <mxGeometry x="370" y="1030" width="120" height="60" as="geometry" />
        </mxCell>
        <mxCell id="omvnYwaKnkiWsVWoxEQf-30" value="no" style="text;html=1;align=center;verticalAlign=middle;resizable=0;points=[];autosize=1;" vertex="1" parent="1">
          <mxGeometry x="75" y="500" width="30" height="20" as="geometry" />
        </mxCell>
        <mxCell id="omvnYwaKnkiWsVWoxEQf-31" value="yes " style="text;html=1;align=center;verticalAlign=middle;resizable=0;points=[];autosize=1;" vertex="1" parent="1">
          <mxGeometry x="245" y="470" width="30" height="20" as="geometry" />
        </mxCell>
        <mxCell id="omvnYwaKnkiWsVWoxEQf-32" value="no" style="text;html=1;align=center;verticalAlign=middle;resizable=0;points=[];autosize=1;" vertex="1" parent="1">
          <mxGeometry x="715" y="460" width="30" height="20" as="geometry" />
        </mxCell>
        <mxCell id="omvnYwaKnkiWsVWoxEQf-33" value="yes " style="text;html=1;align=center;verticalAlign=middle;resizable=0;points=[];autosize=1;" vertex="1" parent="1">
          <mxGeometry x="655" y="460" width="30" height="20" as="geometry" />
        </mxCell>
        <mxCell id="omvnYwaKnkiWsVWoxEQf-34" value="not " style="text;html=1;align=center;verticalAlign=middle;resizable=0;points=[];autosize=1;" vertex="1" parent="1">
          <mxGeometry x="345" y="720" width="30" height="20" as="geometry" />
        </mxCell>
        <mxCell id="omvnYwaKnkiWsVWoxEQf-35" value="yes " style="text;html=1;align=center;verticalAlign=middle;resizable=0;points=[];autosize=1;" vertex="1" parent="1">
          <mxGeometry x="445" y="710" width="30" height="20" as="geometry" />
        </mxCell>
        <mxCell id="omvnYwaKnkiWsVWoxEQf-36" value="no" style="text;html=1;align=center;verticalAlign=middle;resizable=0;points=[];autosize=1;" vertex="1" parent="1">
          <mxGeometry x="355" y="930" width="30" height="20" as="geometry" />
        </mxCell>
        <mxCell id="omvnYwaKnkiWsVWoxEQf-37" value="yes " style="text;html=1;align=center;verticalAlign=middle;resizable=0;points=[];autosize=1;" vertex="1" parent="1">
          <mxGeometry x="445" y="1000" width="30" height="20" as="geometry" />
        </mxCell>
      </root>
    </mxGraphModel>
  </diagram>
</mxfile>
